0
SECTION
2
HEADER
9
$INSUNITS
70
4
9
$ACADVER
1
AC1014
9
$HANDSEED
5
FFFF
0
ENDSEC
0
SECTION
2
TABLES
0
TABLE
2
VPORT
5
8
100
AcDbSymbolTable
0
ENDTAB
0
TABLE
2
LTYPE
5
5
100
AcDbSymbolTable
0
LTYPE
5
14
100
AcDbSymbolTableRecord
100
AcDbLinetypeTableRecord
2
BYBLOCK
70
0
0
LTYPE
5
15
100
AcDbSymbolTableRecord
100
AcDbLinetypeTableRecord
2
BYLAYER
70
0
0
LTYPE
5
16
100
AcDbSymbolTableRecord
100
AcDbLinetypeTableRecord
2
DASHED
70
0
3
Dashed __ __ __ __ __ __ __ __ __ __ __ __ __ _
72
65
73
2
40
0.75
49
0.5
74
0
49
-0.25
74
0
0
ENDTAB
0
TABLE
2
LAYER
5
2
100
AcDbSymbolTable
70
3
0
LAYER
5
50
100
AcDbSymbolTableRecord
100
AcDbLayerTableRecord
2
1
70
0
62
7
6
DASHED
0
LAYER
5
51
100
AcDbSymbolTableRecord
100
AcDbLayerTableRecord
2
0
70
0
62
7
6
CONTINUOUS
0
ENDTAB
0
TABLE
2
STYLE
5
3
100
AcDbSymbolTable
70
1
0
STYLE
5
11
100
AcDbSymbolTableRecord
100
AcDbTextStyleTableRecord
2
STANDARD
70
0
0
ENDTAB
0
TABLE
2
VIEW
5
6
100
AcDbSymbolTable
70
0
0
ENDTAB
0
TABLE
2
UCS
5
7
100
AcDbSymbolTable
70
0
0
ENDTAB
0
TABLE
2
APPID
5
9
100
AcDbSymbolTable
70
2
0
APPID
5
12
100
AcDbSymbolTableRecord
100
AcDbRegAppTableRecord
2
ACAD
70
0
0
ENDTAB
0
TABLE
2
DIMSTYLE
5
A
100
AcDbSymbolTable
70
1
0
ENDTAB
0
TABLE
2
BLOCK_RECORD
5
1
100
AcDbSymbolTable
70
1
0
BLOCK_RECORD
5
1F
100
AcDbSymbolTableRecord
100
AcDbBlockTableRecord
2
*MODEL_SPACE
0
BLOCK_RECORD
5
1B
100
AcDbSymbolTableRecord
100
AcDbBlockTableRecord
2
*PAPER_SPACE
0
ENDTAB
0
ENDSEC
0
SECTION
2
BLOCKS
0
BLOCK
5
20
100
AcDbEntity
100
AcDbBlockBegin
2
*MODEL_SPACE
0
ENDBLK
5
21
100
AcDbEntity
100
AcDbBlockEnd
0
BLOCK
5
1C
100
AcDbEntity
100
AcDbBlockBegin
2
*PAPER_SPACE
0
ENDBLK
5
1D
100
AcDbEntity
100
AcDbBlockEnd
0
ENDSEC
0
SECTION
2
ENTITIES
0
LWPOLYLINE
5
100
100
AcDbEntity
8
0
100
AcDbPolyline
90
6
70
1
43
0.0
10
995.48650757004066
20
-49
10
568.86000000000001
20
-49
10
564.86000000000001
20
-49
10
568.86000000000001
20
-45
10
995.48650757004066
20
-45
10
999.08681608284394
20
-49
0
LINE
5
101
100
AcDbEntity
8
0
100
AcDbLine
10
539.86000000000001
20
-45
30
0
11
539.86000000000001
21
-20
31
0
0
LINE
5
102
100
AcDbEntity
8
0
100
AcDbLine
10
539.86000000000001
20
-45
30
0
11
539.86000000000001
21
-49
31
0
0
LINE
5
103
100
AcDbEntity
8
0
100
AcDbLine
10
543.86000000000001
20
-45
30
0
11
539.86000000000001
21
-49
31
0
0
LINE
5
104
100
AcDbEntity
8
0
100
AcDbLine
10
543.86000000000001
20
-45
30
0
11
543.86000000000001
21
-20
31
0
0
ARC
5
105
100
AcDbEntity
8
0
100
AcDbCircle
10
-25
20
-20
30
0
40
568.86000000000001
210
0
220
0
230
1
100
AcDbArc
50
0
51
63.280000000000008
0
ARC
5
106
100
AcDbEntity
8
0
100
AcDbCircle
10
-25
20
-20
30
0
40
564.86000000000001
210
0
220
0
230
1
100
AcDbArc
50
0
51
63.280000000000008
0
LINE
5
107
100
AcDbEntity
8
0
100
AcDbLine
10
228.97846310922864
20
484.54113794285809
30
0
11
203.07524284165282
21
497.58043162654542
31
0
0
LINE
5
108
100
AcDbEntity
8
0
100
AcDbLine
10
230.77698637594415
20
488.11399591079964
30
0
11
208.4466240763098
21
499.35476632777147
31
0
0
LINE
5
109
100
AcDbEntity
8
0
100
AcDbLine
10
208.4466240763098
20
499.35476632777147
30
0
11
203.07524284165282
21
497.58043162654542
31
0
0
LWPOLYLINE
5
110
100
AcDbEntity
8
0
100
AcDbPolyline
90
5
70
1
43
0.0
10
198.07524284165282
20
537.58043162654542
10
391.70425773624316
20
922.23432045512698
10
393.31700078084901
20
925.43811656040907
10
395.27711570418461
20
920.43579718841147
10
203.4466240763098
20
539.35476632777147
0
ARC
5
111
100
AcDbEntity
8
0
100
AcDbCircle
10
55
20
25
30
0
40
995.50000000000023
210
0
220
0
230
1
100
AcDbArc
50
-0.29830640254423219
51
64.719020683395058
0
ARC
5
112
100
AcDbEntity
8
0
100
AcDbCircle
10
55
20
25
30
0
40
999.50000000000023
210
0
220
0
230
1
100
AcDbArc
50
-1.4390206833934232
51
64.719020683395811
0
LINE
5
113
100
AcDbEntity
8
0
100
AcDbLine
10
481.8441794951151
20
928.77225916219777
30
0
11
478.31700078084901
21
930.43811656040907
31
0
0
LINE
5
114
100
AcDbEntity
8
0
100
AcDbLine
10
480.27711570418461
20
925.43579718841147
30
0
11
478.31700078084901
21
930.43811656040907
31
0
0
LINE
5
115
100
AcDbEntity
8
0
100
AcDbLine
10
1050.4865075700407
20
25
30
0
11
1050.4865075700407
21
0
31
0
0
LINE
5
116
100
AcDbEntity
8
0
100
AcDbLine
10
1050.4865075700407
20
0
30
0
11
1054.0868160828441
21
-3.9999999999999991
31
0
0
LINE
5
117
100
AcDbEntity
8
0
100
AcDbLine
10
1054.184776359049
20
-0.10045203412527126
30
0
11
1054.0868160828441
21
-3.9999999999999991
31
0
0
ENDSEC
0
SECTION
2
OBJECTS
0
DICTIONARY
5
C
100
AcDbDictionary
3
ACAD_GROUP
350
D
3
ACAD_MLINESTYLE
350
17
0
DICTIONARY
5
D
100
AcDbDictionary
0
DICTIONARY
5
1A
330
C
100
AcDbDictionary
0
DICTIONARY
5
17
100
AcDbDictionary
0
ENDSEC
0
EOF
